<svg xmlns="http://www.w3.org/2000/svg" width="160" height="39" viewBox="0 0 160 39">
    <g fill="#FFF" fill-rule="nonzero">
        <path d="M0 10.356h6.41l6.771 21.98h.104l6.514-21.98h6.098L16.335 38.98H9.719zM50.253 32.204c0 1.471.317 2.049 1.426 2.049h.634c.265 0 .528-.053.845-.105v4.149c-.898.315-2.8.683-3.803.683-2.483 0-4.174-.84-4.65-3.31-2.376 2.311-6.233 3.31-9.457 3.31-4.913 0-9.35-2.626-9.35-7.93 0-6.776 5.44-7.879 10.512-8.457 4.386-.84 8.19-.262 8.19-3.834 0-3.15-3.276-3.676-5.654-3.676-3.38 0-5.758 1.365-6.022 4.307H26.9c.422-6.986 6.34-9.034 12.416-9.034 5.335 0 10.936 2.154 10.936 7.878v13.97zm-6.023-7.562c-1.85 1.208-4.702 1.155-7.397 1.628-2.588.42-4.913 1.365-4.913 4.517 0 2.73 3.434 3.466 5.547 3.466 2.642 0 6.763-1.366 6.763-5.147v-4.464zM55.884 11.111h5.776v5.39h.108c.701-2.964 4.426-6.145 8.151-6.145 1.458 0 1.728.108 2.321.162v5.93a14.69 14.69 0 0 0-2.644-.27c-4.157 0-7.558 3.342-7.558 9.541v13.26h-6.154V11.112z"/>
        <path d="M93.38 32.567h-.107c-2.298 4.258-5.612 6.413-10.53 6.413-8.284 0-11.866-6.676-11.866-14.088 0-7.991 3.955-14.194 12.24-14.194 4.49 0 8.713 2.418 10.156 6.676h.107V.815h2.032V38.35H93.38v-5.782zm-.054-7.675c0-6.309-3.154-12.46-10.209-12.46-7.268 0-10.21 5.94-10.21 12.46 0 6.36 3.208 12.353 10.263 12.353 6.949 0 10.156-6.15 10.156-12.353zM110.405 10.356c7.901 0 12.267 6.544 12.267 14.312 0 7.821-4.366 14.312-12.267 14.312-7.9 0-12.267-6.49-12.267-14.312 0-7.768 4.366-14.312 12.267-14.312zm0 26.868c6.654 0 10.293-6.012 10.293-12.556s-3.64-12.556-10.293-12.556c-6.653 0-10.292 6.012-10.292 12.556s3.639 12.556 10.292 12.556zM134.94 12.702h-5.608v19.574c0 4.47 1.952 5.016 5.557 4.852v1.8c-3.806.272-7.71-.328-7.46-6.652V12.702h-4.757v-1.8h4.757V2.178h1.903v8.724h5.607v1.8zM159.474 25.098v12.77c0 .612-.501 1.112-1.113 1.112h-12.768c-.61 0-1.113-.5-1.113-1.111V25.098c0-.611.502-1.111 1.113-1.111h12.768c.612 0 1.113.5 1.113 1.11zm-10.927 8.704c0 .612.5 1.114 1.113 1.114h4.636c.615 0 1.113-.502 1.113-1.114v-4.64c0-.611-.498-1.111-1.113-1.111h-4.636c-.612 0-1.113.5-1.113 1.111v4.64z"/>
    </g>
</svg>
